<svg xmlns="http://www.w3.org/2000/svg" width="512" height="512" viewBox="0 0 512 512">

<!-- ── Controls (arrows, dot, home) ─────────────────────────── -->
<polygon points="401.7,109.3 383.5,93.1 363.5,79.2 342.0,67.8 319.2,59.0 311.0,84.1 330.8,92.4 349.4,102.1 367.0,114.1 383.0,128.0 373.6,137.4 419.5,152.8 410.7,101.0" fill="#ede8f5" stroke="#1a1a1e" stroke-width="1.4" stroke-linejoin="round"/>
<polygon points="109.3,109.3 127.5,93.1 147.5,79.2 169.0,67.8 191.8,59.0 200.0,84.1 180.2,92.4 161.6,102.1 144.0,114.1 128.0,128.0 137.4,137.4 91.5,152.8 100.3,101.0" fill="#ede8f5" stroke="#1a1a1e" stroke-width="1.4" stroke-linejoin="round"/>
<polygon points="255.5,36.0 216.0,79.9 295.0,79.9" fill="#ede8f5" stroke="#1a1a1e" stroke-width="1.4" stroke-linejoin="round"/>
<polygon points="255.5,475.0 216.0,431.1 295.0,431.1" fill="#ede8f5" stroke="#1a1a1e" stroke-width="1.4" stroke-linejoin="round"/>
<polygon points="475.0,255.5 431.1,216.0 431.1,295.0" fill="#ede8f5" stroke="#1a1a1e" stroke-width="1.4" stroke-linejoin="round"/>
<polygon points="36.0,255.5 79.9,216.0 79.9,295.0" fill="#ede8f5" stroke="#1a1a1e" stroke-width="1.4" stroke-linejoin="round"/>
<polygon points="404.8,404.8 437.7,391.6 404.8,378.4 371.8,391.6 404.8,404.8 371.8,391.6 371.8,431.1 404.8,444.3 404.8,404.8 404.8,444.3 437.7,431.1 437.7,391.6" fill="#ede8f5" stroke="#1a1a1e" stroke-width="1.4" stroke-linejoin="round"/>
<circle cx="446.5" cy="64.5" r="22.0" fill="#ede8f5" stroke="#1a1a1e" stroke-width="1.4"/>

<!-- ── Drop shadow ──────────────────────────────────────── -->
<g>
<polygon points="151.2,215.9 167.9,186.9 167.9,167.5 151.2,177.2 134.4,206.2 134.4,225.6" fill="rgba(20,15,40,0.22)"/>
<polygon points="223.8,380.3 240.5,390.0 274.1,390.0 290.8,380.3 274.1,370.7 240.5,370.7" fill="rgba(20,15,40,0.22)"/>
<polygon points="363.4,177.2 346.7,167.5 346.7,186.9 363.4,215.9 380.2,225.6 380.2,206.2" fill="rgba(20,15,40,0.22)"/>
<polygon points="167.9,167.5 167.9,186.9 240.5,228.8 274.1,228.8 346.7,186.9 346.7,167.5 274.1,125.6 240.5,125.6" fill="rgba(20,15,40,0.22)"/>
<polygon points="134.4,309.4 151.2,338.4 223.8,380.3 240.5,370.7 240.5,286.8 223.8,257.8 151.2,215.9 134.4,225.6" fill="rgba(20,15,40,0.22)"/>
<polygon points="274.1,370.7 290.8,380.3 363.4,338.4 380.2,309.4 380.2,225.6 363.4,215.9 290.8,257.8 274.1,286.8" fill="rgba(20,15,40,0.22)"/>
<polygon points="151.2,215.9 223.8,257.8 240.5,228.8 167.9,186.9" fill="rgba(20,15,40,0.22)"/>
<polygon points="274.1,370.7 274.1,286.8 240.5,286.8 240.5,370.7" fill="rgba(20,15,40,0.22)"/>
<polygon points="290.8,257.8 363.4,215.9 346.7,186.9 274.1,228.8" fill="rgba(20,15,40,0.22)"/>
<polygon points="290.8,257.8 274.1,228.8 240.5,228.8 223.8,257.8 240.5,286.8 274.1,286.8" fill="rgba(20,15,40,0.22)"/>
</g>

<!-- ── Cube faces ────────────────────────────────────── -->
<polygon points="149.4,213.6 166.1,184.6 166.1,165.2 149.4,174.9 132.6,203.9 132.6,223.3" fill="#bc9eb7" stroke="#2a2a30" stroke-width="1.2" stroke-linejoin="round"/>
<polygon points="222.0,378.0 238.7,387.7 272.3,387.7 289.0,378.0 272.3,368.4 238.7,368.4" fill="#89b290" stroke="#2a2a30" stroke-width="1.2" stroke-linejoin="round"/>
<polygon points="361.6,174.9 344.9,165.2 344.9,184.6 361.6,213.6 378.4,223.3 378.4,203.9" fill="#8bb3ca" stroke="#2a2a30" stroke-width="1.2" stroke-linejoin="round"/>
<polygon points="166.1,165.2 166.1,184.6 238.7,226.5 272.3,226.5 344.9,184.6 344.9,165.2 272.3,123.3 238.7,123.3" fill="#a0cef1" stroke="#1a1a1e" stroke-width="2.0" stroke-linejoin="round"/>
<polygon points="132.6,307.1 149.4,336.1 222.0,378.0 238.7,368.4 238.7,284.5 222.0,255.5 149.4,213.6 132.6,223.3" fill="#e58f8b" stroke="#1a1a1e" stroke-width="2.0" stroke-linejoin="round"/>
<polygon points="272.3,368.4 289.0,378.0 361.6,336.1 378.4,307.1 378.4,223.3 361.6,213.6 289.0,255.5 272.3,284.5" fill="#83ca9b" stroke="#1a1a1e" stroke-width="2.0" stroke-linejoin="round"/>
<polygon points="149.4,213.6 222.0,255.5 238.7,226.5 166.1,184.6" fill="#c13939" stroke="#2a2a30" stroke-width="1.2" stroke-linejoin="round"/>
<polygon points="272.3,368.4 272.3,284.5 238.7,284.5 238.7,368.4" fill="#b8b296" stroke="#2a2a30" stroke-width="1.2" stroke-linejoin="round"/>
<polygon points="289.0,255.5 361.6,213.6 344.9,184.6 272.3,226.5" fill="#92d2cc" stroke="#2a2a30" stroke-width="1.2" stroke-linejoin="round"/>
<polygon points="289.0,255.5 272.3,226.5 238.7,226.5 222.0,255.5 238.7,284.5 272.3,284.5" fill="#e1acac" stroke="#2a2a30" stroke-width="1.2" stroke-linejoin="round"/>

<!-- ── Face labels (affine-mapped onto face plane) ──────── -->
<text x="100" y="106" font-family="Arial,Helvetica,sans-serif" font-weight="bold" font-size="56" text-anchor="middle" dominant-baseline="middle" fill="#1a1020" opacity="0.85" transform="matrix(0.53065,0.30637,-0.53065,0.30637,255.50,113.60)">TOP</text>
<text x="100" y="106" font-family="Arial,Helvetica,sans-serif" font-weight="bold" font-size="48" text-anchor="middle" dominant-baseline="middle" fill="#1a1020" opacity="0.85" transform="matrix(0.53065,0.30637,0.00000,0.61274,132.61,203.90)">FRONT</text>
<text x="100" y="106" font-family="Arial,Helvetica,sans-serif" font-weight="bold" font-size="50" text-anchor="middle" dominant-baseline="middle" fill="#1a1020" opacity="0.85" transform="matrix(0.53065,-0.30637,0.00000,0.61274,272.26,265.17)">RIGHT</text>

</svg>